{"title":"The Godfather Part II [crime] (1974) BDRip x264 (subs) [=Faith=]","uid":12108502,"size":2135292538,"categoryP":"video","categoryS":"movies","magnet":"?xt=urn:btih:5d6f5a95f47e3551f41f5272a7a5c4da42620ac6&amp;dn=The+Godfather+Part+II+%5Bcrime%5D+%281974%29+BDRip+x264+%28subs%29+%5B%3DFaith%3D%5D&amp;tr=udp%3A%2F%2Ftracker.openbittorrent.com%3A80&amp;tr=udp%3A%2F%2Fopen.demonii.com%3A1337&amp;tr=udp%3A%2F%2Ftracker.coppersurfer.tk%3A6969&amp;tr=udp%3A%2F%2Fexodus.desync.com%3A6969","seeders":4,"leechers":3,"uploader":"Faithwyn","files":6,"time":1436492432,"description":"\nThe Godfather Part II\n\n\nThe early life and career of Vito Corleone in 1920s New York is portrayed while\nhis son, Michael, expands and tightens his grip on his crime syndicate stretching\nfrom Lake Tahoe, Nevada to pre-revolution 1958 Cuba.\n\n\nThe Film:\n\nDirected by: Francis Ford Coppola\nProduced by: Francis Ford Coppola\nScreenplay by:\n   Francis Ford Coppola\n   Mario Puzo\nBased on: &quot;The Godfather&quot; by Mario Puzo\nStarring:\n   Al Pacino\n   Robert Duvall\n   Diane Keaton\n   Robert De Niro\n   Talia Shire\n   Morgana King\n   John Cazale\n   Marianna Hill\n   Lee Strasberg\nMusic by: Nino Rota\nCinematography: Gordon Willis\nEdited by:\n   Peter Zinner\n   Barry Malkin\n   Richard Marks\nProduction: Coppola Company\nDistributed by: Paramount Pictures\nRelease dates:\n   December 12, 1974 (New York City)\n   December 20, 1974 (United States)\nRunning time: 200 minutes\nCountry: United States\nLanguage: English\nSubtitles: English\n   Track 1 - (Italian speaking parts only!)\n   Track 2 - (full)\nIMDB Rating: 9.1\n\n\n\nGeneral:\n\nComplete name : The Godfather II (1974).m4v\nFormat : MPEG-4\nFormat profile : Base Media / Version 2\nCodec ID : mp42\nFile size : 1.99 GiB\nDuration : 3h 22mn\nOverall bit rate mode : Variable\nOverall bit rate : 1 409 Kbps\nEncoded date : UTC 2036-02-06 06:28:16\nTagged date : UTC 2036-02-06 06:28:16\nWriting application : HandBrake 0.10.2\n\n\nVideo:\n\nID : 1\nFormat : AVC\nFormat/Info : Advanced Video Codec\nFormat profile : &lt;a class=&quot;__cf_email__&quot; href=&quot;/cdn-cgi/l/email-protection&quot; data-cfemail=&quot;d199b8b6b9919de5ffe0&quot;&gt;[email&amp;#160;protected]&lt;/a&gt;&lt;script data-cfhash='f9e31' type=&quot;text/javascript&quot;&gt;\n/* &lt;![CDATA[ */!function(){try{var t=&quot;currentScript&quot;in document?document.currentScript:function(){for(var t=document.getElementsByTagName(&quot;script&quot;),e=t.length;e--;)if(t[e].getAttribute(&quot;data-cfhash&quot;))return t[e]}();if(t&amp;&amp;t.previousSibling){var e,r,n,i,c=t.previousSibling,a=c.getAttribute(&quot;data-cfemail&quot;);if(a){for(e=&quot;&quot;,r=parseInt(a.substr(0,2),16),n=2;a.length-n;n+=2)i=parseInt(a.substr(n,2),16)^r,e+=String.fromCharCode(i);e=document.createTextNode(e),c.parentNode.replaceChild(e,c)}t.parentNode.removeChild(t);}}catch(u){}}()/* ]]&gt; */&lt;/script&gt;\nFormat settings, CABAC : Yes\nFormat settings, ReFrames : 5 frames\nCodec ID : avc1\nCodec ID/Info : Advanced Video Coding\nDuration : 3h 22min\nBit rate : 1 241 Kbps\nWidth : 1 280 pixels\nHeight : 720 pixels\nDisplay aspect ratio : 16:9\nFrame rate mode : Variable\nFrame rate : 23.976 fps\nMinimum frame rate : 5.994 fps\nMaximum frame rate : 23.981 fps\nColor space : YUV\nChroma subsampling : 4:2:0\nBit depth : 8 bits\nScan type : Progressive\nBits/(Pixel*Frame) : 0.056\nStream size : 1.75 GiB (88%)\nWriting library : x264 core 142 r2479 dd79a61\nEncoding settings : (see .nfo file for details)\n\n\nAudio:\n\nID : 2\nFormat : AAC\nFormat/Info : Advanced Audio Codec\nFormat profile : LC\nCodec ID : 40\nDuration : 3h 22min\nBit rate mode : Variable\nBit rate : 160 Kbps\nChannels : 2 channels\nChannel positions : Front: L R\nSampling rate : 48.0 KHz\nCompression mode : Lossy\nStream size : 232 MiB (11%)","torrent":{"xt":"urn:btih:5d6f5a95f47e3551f41f5272a7a5c4da42620ac6","amp;dn":"The+Godfather+Part+II+%5Bcrime%5D+%281974%29+BDRip+x264+%28subs%29+%5B%3DFaith%3D%5D","amp;tr":["udp%3A%2F%2Ftracker.openbittorrent.com%3A80","udp%3A%2F%2Fopen.demonii.com%3A1337","udp%3A%2F%2Ftracker.coppersurfer.tk%3A6969","udp%3A%2F%2Fexodus.desync.com%3A6969"],"infoHash":"5d6f5a95f47e3551f41f5272a7a5c4da42620ac6","infoHashBuffer":{"type":"Buffer","data":[93,111,90,149,244,126,53,81,244,31,82,114,167,165,196,218,66,98,10,198]},"announce":[],"urlList":[]}}